<?xml version="1.0" encoding="utf-8"?>
<!-- Generator: Adobe Illustrator 19.2.1, SVG Export Plug-In . SVG Version: 6.00 Build 0)  -->
<svg version="1.1" id="layer" xmlns="http://www.w3.org/2000/svg" xmlns:xlink="http://www.w3.org/1999/xlink" x="0px" y="0px"
	 viewBox="0 0 652 652" style="enable-background:new 0 0 652 652;" xml:space="preserve">
<style type="text/css">
	.st0{fill:#018BFF;}
</style>
<path d="M133.2,263.3c-32.7,0-54.7,18.8-54.7,55.9v22.6c3.4-1.5,7-2.3,10.7-2.5c3.7-0.1,7.4,0.7,10.7,2.5v-22.6
	c0-23.9,13.2-36.5,33.1-36.5s33.1,12.6,33.1,36.5v57.8h21.4v-57.8c0-37.1-22.1-55.9-54.6-55.9 M199.1,321.6
	c0-33.9,24.5-58.4,59.7-58.4s59,24.6,59,58.4v7.6h-96.1c2.5,18.3,18.6,31.7,37.1,30.8c14.5,0,24.5-4.4,30.8-13.8H313
	c-8.8,20.7-28.9,33.9-54.6,33.9c-34.6,0-59-24.5-59-58.4 M296.1,310.6c-4-17-19.7-28.6-37.1-27.6c-17.3-0.9-32.7,10.7-36.4,27.6
	H296.1z M329.6,321.6c0-33.8,24.7-58.4,59.9-58.4c31.7-1.3,58.4,23.4,59.7,55.1c0,1.1,0.1,2.2,0,3.3c0,34-24.5,58.4-59.7,58.4
	S329.6,355.6,329.6,321.6 M426.9,321.6c1.2-20-14.1-37.1-34.1-38.3c-1.4-0.1-2.8-0.1-4.2,0c-20.4-0.8-37.5,15-38.3,35.4
	c0,1,0,1.9,0,2.9c-1.2,20,14.1,37.2,34.1,38.3c1.4,0.1,2.8,0.1,4.2,0C411.9,360.6,426.9,344.3,426.9,321.6 M571,399.6h2.5
	c13.8,0,18.8-6.3,18.8-22.1V270.8h21.4v105.5c0,27.6-10.7,41.5-38.3,41.5H571V399.6z M560.4,387.7H539v-26.4h-54
	c-10.1,0.4-19.7-4.9-24.5-13.8c-4-8.3-2.8-18.1,3.1-25.1l48.3-63.5c6.8-9.6,19.2-13.5,30.3-9.6c10.9,3.5,18.3,13.7,18.2,25.1v68.1
	h12.5v18.8h-12.5V387.7z M481.2,334.2c-0.8,0.8-1.3,2-1.3,3.1c0,3.1,2.5,5.5,5.5,5.5h53.4v-68.4c0-3.8-2.5-5-3.8-5h-1.9
	c-1.8,0.1-3.4,1-4.4,2.5L481.2,334.2z"/>
<path class="st0" d="M603.1,221.6c-10.1,0-18.2,8.2-18.2,18.2s8.2,18.2,18.2,18.2c10.1,0,18.2-8.2,18.2-18.2
	C621.3,229.8,613.1,221.6,603.1,221.6C603.1,221.6,603.1,221.6,603.1,221.6 M87.9,349.9c-3.9-0.2-7.8,1.1-10.7,3.8l-20.1-13.1
	c0.5-1.6,0.8-3.3,0.7-5c0-10.1-8.1-18.3-18.2-18.3s-18.3,8.1-18.3,18.2c0,10.1,8.1,18.3,18.2,18.3c0,0,0,0,0.1,0
	c3.9,0.2,7.8-1.1,10.7-3.8l20.1,13.8c-0.5,1.6-0.7,3.3-0.6,5c-0.1,1.7,0.1,3.4,0.6,5l-20.1,13.9c-3-2.5-6.8-3.8-10.7-3.8
	c-10.1,0-18.2,8.2-18.2,18.2c0,10.1,8.2,18.2,18.2,18.2s18.2-8.2,18.2-18.2l0,0c0.1-1.7-0.1-3.4-0.7-5l20.1-13.8
	c3,2.5,6.8,3.8,10.7,3.8c10,0,18.2-8.1,18.2-18.2c0,0,0,0,0-0.1C106.2,358.6,98.1,350.2,87.9,349.9"/>
</svg>
